<svg id="Layer_1" data-name="Layer 1" xmlns="http://www.w3.org/2000/svg" width="24" height="24" viewBox="0 0 24 24"><title>Artboard 1</title><path d="M5.8,11.38a2.75,2.75,0,0,1-2-.81C1.22,8-.05,5.71,0,3.76A4.45,4.45,0,0,1,1.68.5L1.83.36A1.48,1.48,0,0,1,3.33.09l7.89,2.73a.5.5,0,0,1,.19.12A3,3,0,0,1,12.08,6a8.32,8.32,0,0,1-5.24,5.24A4,4,0,0,1,5.8,11.38ZM2.78,1a.36.36,0,0,0-.24.07l-.19.18A3.44,3.44,0,0,0,1,3.78C1,5.45,2.13,7.5,4.49,9.86a2,2,0,0,0,2.09.41,7.32,7.32,0,0,0,4.53-4.53,2.06,2.06,0,0,0-.34-2L3,1H3A.68.68,0,0,0,2.78,1Z" style="fill:#fff"/><path d="M7.23,6.13a.94.94,0,1,1,.94-.94A.95.95,0,0,1,7.23,6.13Zm-.06-.94.06.06a.06.06,0,0,0,.06-.06Z" style="fill:#fff"/><path d="M16.44,16.8a.5.5,0,0,1-.35-.15L9,9.57a.5.5,0,0,1,.71-.71l7.08,7.08a.5.5,0,0,1-.35.85Z" style="fill:#fff"/><path d="M9,12.9A.5.5,0,0,1,8.67,12l3.18-3.18a.5.5,0,0,1,.71.71L9.38,12.75A.5.5,0,0,1,9,12.9Z" style="fill:#fff"/><path d="M10.43,15.74a.5.5,0,0,1-.35-.85l4.95-5a.5.5,0,1,1,.71.71l-4.95,5A.5.5,0,0,1,10.43,15.74Z" style="fill:#fff"/><path d="M13.27,17.14a.5.5,0,0,1-.35-.85l3.18-3.18a.5.5,0,0,1,.71.71L13.62,17A.5.5,0,0,1,13.27,17.14Z" style="fill:#fff"/><path d="M3.43,5A.5.5,0,0,1,3,4.62L1.8.79a.5.5,0,0,1,1-.29L3.91,4.33A.5.5,0,0,1,3.58,5Z" style="fill:#fff"/><path d="M17.88,23.62a.49.49,0,0,1-.25-.07,5.1,5.1,0,0,1-1.08-.82,5.72,5.72,0,0,1-1.73-3.33,4.12,4.12,0,0,1,1.26-3.44c1.89-1.89,4.61-1.7,6.78.47a5.1,5.1,0,0,1,.82,1.09.5.5,0,0,1-.68.68c-1.19-.68-3.64-.36-4.8-.12-.24,1.16-.56,3.62.12,4.8a.5.5,0,0,1-.43.75Zm1.17-8a3.4,3.4,0,0,0-3.24,3.63A4.54,4.54,0,0,0,17,21.7a13.76,13.76,0,0,1,.33-4.17.5.5,0,0,1,.37-.37,13.81,13.81,0,0,1,4.18-.34A4.4,4.4,0,0,0,19.06,15.65Z" style="fill:#fff"/></svg>